# xmcd CD database file
#
# Track frame offsets:
#	150
#	18447
#	38476
#	57781
#	79823
#	100543
#	119073
#	138226
#	165809
#
# Disc length: 2479 seconds
#
# Revision: 0
# Processed by: cddbd v1.5.2PL0 Copyright (c) Steve Scherf et al.
# Submitted via: CDex 1.70beta2
#
DISCID=6109ad09
DTITLE=Oscar D'León - Tranquilamente ... Tranquilo
DYEAR=2008
DGENRE=Salsa
TTITLE0=Ni Frío Ni Calor
TTITLE1=Hasta Que Vuelvas
TTITLE2=Tienes Uno, Tengo Otra
TTITLE3=Papelito
TTITLE4=Tranquilamente Tranquilo
TTITLE5=Esta Ausencia
TTITLE6=Quiéreme
TTITLE7=Yo Me Siento Como En Casa
TTITLE8=Cocaleca (Remix)
EXTD=YEAR: 2008
EXTT0=
EXTT1=
EXTT2=
EXTT3=
EXTT4=
EXTT5=
EXTT6=
EXTT7=
EXTT8=
PLAYORDER=
